<svg xmlns="http://www.w3.org/2000/svg" xmlns:xlink="http://www.w3.org/1999/xlink" width="291.764" height="195.509" viewBox="0 0 291.764 195.509"><defs><style>.a{fill:#0080ff;opacity:0.05;}.b{fill:#704b26;}.c{fill:#81b51c;}.d{fill:#9bcf35;}.e{fill:#5b8f00;}.f{opacity:0.6;}.ai,.au,.f{mix-blend-mode:multiply;isolation:isolate;}.g{fill:#fff;}.h{fill:#e8e8e8;}.i{fill:#d1d1d1;}.j{fill:#b9b9b9;}.k{fill:#a2a2a2;}.l{fill:#8b8b8b;}.m{fill:#747474;}.n{fill:#5d5d5d;}.o{fill:#464646;}.p{fill:#2e2e2e;}.q{fill:#171717;}.r{fill:#2e383b;}.s{fill:url(#a);}.t{fill:url(#b);}.u{fill:#414e52;}.v{fill:url(#c);}.w{fill:url(#d);}.x{fill:url(#e);}.y{fill:url(#f);}.z{fill:url(#g);}.aa{fill:url(#h);}.ab{fill:#212b2e;}.ac{fill:url(#i);}.ad{fill:#da1f24;}.ae{fill:#151f22;}.af{fill:#889aa5;}.ag{fill:#008dd4;}.ah{fill:#07b3fa;}.ai{fill:url(#j);}.aj{fill:#d4dbdf;}.ak{fill:url(#k);}.al{fill:url(#l);}.am{fill:url(#m);}.an{fill:#20cdff;}.ao{fill:#a2b4bf;}.ap{fill:#6e808b;}.aq{fill:#aebfc8;}.ar{fill:#dee5e9;}.as{fill:#586770;}.at{fill:#051f41;}.au{opacity:0.2;}.av{fill:#133677;}.aw{fill:#2d5091;}.ax{fill:#204384;}.ay{fill:#f0a781;}.az{fill:#d68d69;}.ba{fill:#563317;}.bb{fill:#bbc2c6;}.bc{fill:#e1e8ec;}.bd{fill:#ffde01;}.be{fill:#ffb710;}</style><linearGradient id="a" x1="0.5" y1="1.126" x2="0.5" y2="-0.2" gradientUnits="objectBoundingBox"><stop offset="0" stop-color="#f9fcff"/><stop offset="1" stop-color="#76797a"/></linearGradient><radialGradient id="b" cx="0.5" cy="0.5" r="0.5" gradientTransform="translate(0)" gradientUnits="objectBoundingBox"><stop offset="0.745" stop-color="#222b2e"/><stop offset="0.762" stop-color="#30393c"/><stop offset="0.792" stop-color="#444d50"/><stop offset="0.822" stop-color="#50595c"/><stop offset="0.852" stop-color="#555e61"/><stop offset="0.895" stop-color="#515a5d"/><stop offset="0.935" stop-color="#464f52"/><stop offset="0.974" stop-color="#333c3f"/><stop offset="1" stop-color="#222b2e"/></radialGradient><linearGradient id="c" x1="0.5" x2="0.5" y2="1.026" gradientUnits="objectBoundingBox"><stop offset="0" stop-color="#2e383b"/><stop offset="1" stop-color="#414e52"/></linearGradient><radialGradient id="d" cx="0.508" cy="0.96" r="0.961" gradientTransform="translate(0.228) scale(0.543 1)" gradientUnits="objectBoundingBox"><stop offset="0.852" stop-color="#222b2e"/><stop offset="0.896" stop-color="#2c3538"/><stop offset="0.971" stop-color="#485154"/><stop offset="1" stop-color="#555e61"/></radialGradient><radialGradient id="e" cx="0.5" cy="0.5" r="0.5" xlink:href="#b"/><linearGradient id="f" x1="0.5" y1="1" x2="0.5" y2="-0.074" xlink:href="#c"/><linearGradient id="g" x1="0.5" y1="-0.239" x2="0.5" y2="1.824" xlink:href="#c"/><linearGradient id="h" x1="0.5" y1="0.983" x2="0.5" y2="-0.019" xlink:href="#c"/><radialGradient id="i" cx="0.365" cy="0.94" r="0.942" gradientTransform="translate(0.159) scale(0.683 1)" xlink:href="#d"/><linearGradient id="j" x1="0.486" y1="0.746" x2="0.515" y2="0.351" gradientUnits="objectBoundingBox"><stop offset="0" stop-color="#fff"/><stop offset="1" stop-color="#07b3fa"/></linearGradient><linearGradient id="k" x1="0.486" y1="1.063" x2="0.524" y2="0.013" gradientUnits="objectBoundingBox"><stop offset="0" stop-color="#2e383b"/><stop offset="1" stop-color="#61747a"/></linearGradient><linearGradient id="l" x1="0.5" y1="0.029" x2="0.5" y2="1.074" gradientUnits="objectBoundingBox"><stop offset="0" stop-color="#839794"/><stop offset="0.012" stop-color="#899c9a"/><stop offset="0.092" stop-color="#b1bebe"/><stop offset="0.17" stop-color="#d0d9da"/><stop offset="0.246" stop-color="#e7ecee"/><stop offset="0.318" stop-color="#f4f8fa"/><stop offset="0.383" stop-color="#f9fcff"/><stop offset="0.497" stop-color="#d2d8d3"/><stop offset="0.618" stop-color="#b4c3c1"/><stop offset="0.713" stop-color="#acbab9"/><stop offset="0.769" stop-color="#98a7a6"/><stop offset="0.855" stop-color="#7f9090"/><stop offset="0.934" stop-color="#718283"/><stop offset="1" stop-color="#6c7e7f"/></linearGradient><linearGradient id="m" x1="0.367" y1="0.513" x2="0.631" y2="0.534" gradientUnits="objectBoundingBox"><stop offset="0" stop-color="#242c2e"/><stop offset="0.089" stop-color="#3e4b4e"/><stop offset="0.148" stop-color="#4b5b5f"/><stop offset="0.272" stop-color="#6d858a"/><stop offset="0.492" stop-color="#333f41"/><stop offset="0.874" stop-color="#21292b"/><stop offset="1" stop-color="#414e52"/></linearGradient></defs><g transform="translate(-232.468 -330)"><path class="a" d="M1265.93,338.687c-.094,0-.186.007-.276.013a5.426,5.426,0,0,0-6.064-3.689,5.473,5.473,0,0,0-10.917.15,5.464,5.464,0,0,0-6.824,3.8,3.6,3.6,0,0,0-4.988,3.327h32.673A3.6,3.6,0,0,0,1265.93,338.687Z" transform="translate(-880.042)"/><path class="a" d="M1954.354,529.76a6.539,6.539,0,0,0-5.2,2.568,47.96,47.96,0,0,1-22.174-5.981,10.029,10.029,0,0,0-1.982.2,6.558,6.558,0,0,0-12.7,3.221c-.045,0-.089-.006-.134-.006a6.557,6.557,0,0,0-6.557,6.557h55.3A6.557,6.557,0,0,0,1954.354,529.76Z" transform="translate(-1465.999 -168.13)"/><path class="a" d="M487.408,455.713a5.794,5.794,0,0,1,2.929.8,5.817,5.817,0,0,1,9.024-.831,5.817,5.817,0,0,1,10.522.745,5.8,5.8,0,0,1,2.789-.711c.152,0,.3.012.448.023a8.767,8.767,0,0,1,9.8-5.964,8.845,8.845,0,0,1,17.644.243,8.831,8.831,0,0,1,11.029,6.146,5.823,5.823,0,0,1,8.063,5.376H481.584A5.824,5.824,0,0,1,487.408,455.713Z" transform="translate(-218.274 -97.849)"/><g transform="translate(373.154 392.183)"><path class="b" d="M1490.415,1039.995a28.59,28.59,0,0,0-4.208,2,29.968,29.968,0,0,0-8.364,7.194c-.057-2.222-.124-4.442-.233-6.665-.132-2.736-.506-12.086-.778-14.824-.272,2.738-.643,12.088-.776,14.824-.073,1.452-.125,2.9-.168,4.357a20.986,20.986,0,0,0-4.581-5.4,19.722,19.722,0,0,0-2.649-1.877c-.674-.4-1.08-.591-1.076-.594s.366.241.977.7a23.5,23.5,0,0,1,2.4,2.075,24.521,24.521,0,0,1,4.186,5.58q.308.566.59,1.156c.034.075.07.15.1.228-.019.664-.033,1.324-.05,1.986q-.1,4.107-.146,8.212c-.023,2.738.009,3.524.009,4.454h2.374c0-.693.032-1.716.007-4.454q-.043-3.8-.131-7.61c.109-.162.22-.324.334-.483q.537-.764,1.115-1.488a34.924,34.924,0,0,1,7.287-6.85,33.633,33.633,0,0,1,3.892-2.343c.981-.5,1.56-.747,1.559-.75S1491.465,1039.6,1490.415,1039.995Z" transform="translate(-1455.354 -1003.503)"/><g transform="translate(0 0)"><path class="c" d="M1462.438,847.29a15.027,15.027,0,1,1-15.028-15.028A15.029,15.029,0,0,1,1462.438,847.29Z" transform="translate(-1424.513 -832.262)"/><path class="d" d="M1435.089,850.609a15.024,15.024,0,0,1,25.211-11.045,15.027,15.027,0,1,0-23.073,18.774A14.961,14.961,0,0,1,1435.089,850.609Z" transform="translate(-1424.513 -832.262)"/><path class="d" d="M1578.681,880.8a1.061,1.061,0,1,1-1.063-1.06A1.061,1.061,0,0,1,1578.681,880.8Z" transform="translate(-1550.838 -873.865)"/><path class="c" d="M1398.174,940.6a14.681,14.681,0,1,1-14.682-14.681A14.68,14.68,0,0,1,1398.174,940.6Z" transform="translate(-1368.812 -914.323)"/><path class="e" d="M1415.955,948.767a14.681,14.681,0,0,1-19.98,21.2,14.681,14.681,0,1,0,19.98-21.2Z" transform="translate(-1392.612 -934.343)"/><path class="c" d="M1559.373,957.622a13.245,13.245,0,1,1-13.246-13.244A13.244,13.244,0,0,1,1559.373,957.622Z" transform="translate(-1512.57 -930.497)"/><path class="e" d="M1566.707,967.69a13.242,13.242,0,0,1-19.753,16.922,13.243,13.243,0,1,0,19.753-16.922Z" transform="translate(-1524.899 -950.923)"/><path class="e" d="M1599.283,1023.607a3.572,3.572,0,0,1-5.328,4.565,3.572,3.572,0,1,0,5.328-4.565Z" transform="translate(-1566.081 -999.917)"/><path class="d" d="M1371.454,943.841a14.68,14.68,0,0,1,24.632-10.793,14.681,14.681,0,1,0-22.542,18.343A14.606,14.606,0,0,1,1371.454,943.841Z" transform="translate(-1368.812 -914.323)"/><path class="d" d="M1419.108,1046.684a2.193,2.193,0,1,1-2.192-2.193A2.192,2.192,0,0,1,1419.108,1046.684Z" transform="translate(-1409.037 -1018.217)"/><path class="d" d="M1443.706,1016.75a1.062,1.062,0,1,1-1.062-1.06A1.061,1.061,0,0,1,1443.706,1016.75Z" transform="translate(-1432.573 -992.981)"/><path class="d" d="M1623.044,959.774a1.061,1.061,0,1,1-1.063-1.061A1.062,1.062,0,0,1,1623.044,959.774Z" transform="translate(-1589.709 -943.058)"/><path class="d" d="M1649.012,976.909a1.061,1.061,0,1,1-1.059-1.062A1.06,1.06,0,0,1,1649.012,976.909Z" transform="translate(-1612.462 -958.069)"/><path class="c" d="M1431.274,1065.364a.573.573,0,1,1-.571-.574A.572.572,0,0,1,1431.274,1065.364Z" transform="translate(-1422.537 -1036.002)"/></g></g><g transform="translate(482.611 434.912)"><g transform="translate(0 0)"><path class="c" d="M2274.32,1194.607a11.477,11.477,0,1,0-19.871,0Z" transform="translate(-2252.908 -1177.387)"/><path class="d" d="M2255.43,1194.607a11.476,11.476,0,0,1,18.8-11.644,11.477,11.477,0,0,0-19.781,11.644Z" transform="translate(-2252.908 -1177.387)"/><path class="d" d="M2314.305,1224a1.746,1.746,0,1,1-1.746-1.744A1.746,1.746,0,0,1,2314.305,1224Z" transform="translate(-2303.645 -1216.697)"/><path class="e" d="M2368.349,1291.884a.844.844,0,1,1-.844-.844A.844.844,0,0,1,2368.349,1291.884Z" transform="translate(-2352.578 -1276.969)"/><path class="e" d="M2392.578,1266.515a1.987,1.987,0,1,1-1.986-1.988A1.985,1.985,0,0,1,2392.578,1266.515Z" transform="translate(-2371.805 -1253.739)"/></g><g transform="translate(16.663 6.24)"><path class="c" d="M2401.15,1238.768a7.319,7.319,0,1,0-12.671,0Z" transform="translate(-2387.495 -1227.787)"/><path class="d" d="M2389.1,1238.768a7.319,7.319,0,0,1,11.989-7.427,7.319,7.319,0,0,0-12.615,7.427Z" transform="translate(-2387.495 -1227.787)"/><path class="d" d="M2426.662,1257.5a1.113,1.113,0,1,1-1.114-1.113A1.115,1.115,0,0,1,2426.662,1257.5Z" transform="translate(-2419.863 -1252.843)"/><path class="e" d="M2461.139,1300.793a.538.538,0,1,1-.539-.538A.54.54,0,0,1,2461.139,1300.793Z" transform="translate(-2451.079 -1291.283)"/><path class="e" d="M2476.565,1284.633a1.268,1.268,0,1,1-1.268-1.266A1.27,1.27,0,0,1,2476.565,1284.633Z" transform="translate(-2463.316 -1276.486)"/></g></g><g transform="translate(279.823 435.79)"><path class="c" d="M658.577,1200.774A10.507,10.507,0,0,0,648.1,1191.1c-.248,0-.493.012-.737.029a10.507,10.507,0,0,0-17.839-2.866,9.995,9.995,0,0,0-13.885,12.515Z" transform="translate(-614.962 -1184.483)"/><path class="d" d="M782.415,1227.959a1.534,1.534,0,1,1-1.533-1.533A1.534,1.534,0,0,1,782.415,1227.959Z" transform="translate(-758.996 -1221.233)"/><path class="d" d="M679.447,1244.271a.742.742,0,1,1-.742-.741A.742.742,0,0,1,679.447,1244.271Z" transform="translate(-670.163 -1236.22)"/><path class="d" d="M757.973,1246.727a.742.742,0,1,1-.741-.742A.742.742,0,0,1,757.973,1246.727Z" transform="translate(-738.968 -1238.371)"/><path class="e" d="M897.687,1290.24a.742.742,0,1,1-.742-.742A.742.742,0,0,1,897.687,1290.24Z" transform="translate(-861.384 -1276.497)"/><path class="d" d="M813.771,1255.825a3.151,3.151,0,0,1,5.288-2.318,3.152,3.152,0,1,0-4.839,3.938A3.137,3.137,0,0,1,813.771,1255.825Z" transform="translate(-788.66 -1243.62)"/><path class="e" d="M899.886,1247.653c0,.242-.011.482-.027.72h4.13a10.512,10.512,0,0,0-8.94-9.565A10.5,10.5,0,0,1,899.886,1247.653Z" transform="translate(-860.372 -1232.082)"/><path class="d" d="M637.6,1184.483a10.485,10.485,0,0,0-8.067,3.776,10,10,0,0,0-13.886,12.515h1.22a9.985,9.985,0,0,1,11.75-11.238,10.509,10.509,0,0,0,.211,11.238h.74a10.509,10.509,0,0,1,17.046-11.186A10.5,10.5,0,0,0,637.6,1184.483Z" transform="translate(-614.962 -1184.483)"/></g><g transform="translate(416.74 435.381)"><path class="c" d="M1753.187,1197.9a10.785,10.785,0,0,0-10.75-9.933c-.255,0-.507.011-.757.029a10.786,10.786,0,1,0-19.036,9.9Z" transform="translate(-1720.862 -1181.18)"/><path class="d" d="M1792.226,1225.81a1.574,1.574,0,1,1-1.573-1.574A1.574,1.574,0,0,1,1792.226,1225.81Z" transform="translate(-1780.633 -1218.905)"/><path class="d" d="M1767.131,1245.067a.762.762,0,1,1-.761-.762A.761.761,0,0,1,1767.131,1245.067Z" transform="translate(-1760.068 -1236.49)"/><path class="e" d="M1910.546,1289.734a.762.762,0,1,1-.762-.762A.762.762,0,0,1,1910.546,1289.734Z" transform="translate(-1885.727 -1275.627)"/><path class="d" d="M1723.4,1197.9a10.787,10.787,0,0,1,17.5-11.482,10.786,10.786,0,1,0-18.256,11.482Z" transform="translate(-1720.862 -1181.18)"/><path class="e" d="M1912.8,1246.025c0,.249-.012.495-.028.74h4.239a10.79,10.79,0,0,0-9.177-9.819A10.775,10.775,0,0,1,1912.8,1246.025Z" transform="translate(-1884.687 -1230.042)"/></g><g transform="translate(403.96 379.77)"><path class="b" d="M1764.429,982.78a34.518,34.518,0,0,0-5.081,2.413,36.193,36.193,0,0,0-10.1,8.684c-.069-2.682-.149-5.362-.281-8.046-.159-3.3-.611-14.59-.938-17.9-.329,3.305-.777,14.593-.939,17.9q-.128,2.63-.2,5.26a25.355,25.355,0,0,0-5.528-6.521,23.783,23.783,0,0,0-3.2-2.266c-.813-.481-1.3-.714-1.3-.716s.444.291,1.183.847a28.532,28.532,0,0,1,2.889,2.506,28.885,28.885,0,0,1,3.457,4.143,29.668,29.668,0,0,1,1.6,2.593q.372.685.711,1.4c.041.09.085.182.125.275-.023.8-.041,1.6-.062,2.4q-.122,4.958-.175,9.914c-.028,3.306.01,4.255.01,5.378h2.865c0-.836.038-2.072.008-5.378q-.048-4.592-.158-9.187c.132-.2.266-.391.4-.583q.649-.923,1.347-1.8a42.412,42.412,0,0,1,2.9-3.272,41.777,41.777,0,0,1,5.9-5,40.258,40.258,0,0,1,4.7-2.828c1.183-.6,1.883-.9,1.881-.905S1765.7,982.3,1764.429,982.78Z" transform="translate(-1722.101 -938.725)"/><g transform="translate(0)"><path class="c" d="M1730.664,750.138A18.142,18.142,0,1,1,1712.522,732,18.143,18.143,0,0,1,1730.664,750.138Z" transform="translate(-1684.879 -731.996)"/><path class="d" d="M1697.646,754.145a18.138,18.138,0,0,1,30.436-13.335,18.14,18.14,0,1,0-27.852,22.664A18.032,18.032,0,0,1,1697.646,754.145Z" transform="translate(-1684.879 -731.996)"/><path class="d" d="M1871,790.6a1.282,1.282,0,1,1-1.282-1.28A1.283,1.283,0,0,1,1871,790.6Z" transform="translate(-1837.386 -782.222)"/><path class="c" d="M1653.083,862.782a17.724,17.724,0,1,1-17.724-17.725A17.723,17.723,0,0,1,1653.083,862.782Z" transform="translate(-1617.636 -831.059)"/><path class="e" d="M1674.554,872.646a17.723,17.723,0,0,1-24.12,25.6,17.724,17.724,0,1,0,24.12-25.6Z" transform="translate(-1646.373 -855.233)"/><path class="c" d="M1847.679,883.334a15.991,15.991,0,1,1-15.99-15.988A15.989,15.989,0,0,1,1847.679,883.334Z" transform="translate(-1791.177 -850.589)"/><path class="e" d="M1856.543,895.489a15.986,15.986,0,0,1-23.845,20.429,15.988,15.988,0,1,0,23.845-20.429Z" transform="translate(-1806.072 -875.248)"/><path class="e" d="M1895.874,963a4.313,4.313,0,0,1-6.434,5.51,4.313,4.313,0,1,0,6.434-5.51Z" transform="translate(-1855.789 -934.401)"/><path class="d" d="M1620.826,866.7a17.722,17.722,0,0,1,29.736-13.031,17.724,17.724,0,1,0-27.214,22.145A17.648,17.648,0,0,1,1620.826,866.7Z" transform="translate(-1617.636 -831.059)"/><path class="d" d="M1678.367,990.857a2.648,2.648,0,1,1-2.65-2.646A2.649,2.649,0,0,1,1678.367,990.857Z" transform="translate(-1666.207 -956.49)"/><path class="d" d="M1708.054,954.715a1.282,1.282,0,1,1-1.281-1.28A1.279,1.279,0,0,1,1708.054,954.715Z" transform="translate(-1694.614 -926.02)"/><path class="d" d="M1924.567,885.936a1.28,1.28,0,1,1-1.282-1.281A1.282,1.282,0,0,1,1924.567,885.936Z" transform="translate(-1884.324 -865.755)"/><path class="d" d="M1955.917,906.619a1.281,1.281,0,1,1-1.281-1.282A1.282,1.282,0,0,1,1955.917,906.619Z" transform="translate(-1911.791 -883.876)"/><path class="c" d="M1693.036,1013.406a.692.692,0,1,1-.691-.693A.691.691,0,0,1,1693.036,1013.406Z" transform="translate(-1682.488 -977.959)"/></g></g><g transform="translate(442.067 387.369)"><path class="b" d="M2052.659,1016.058a29.842,29.842,0,0,1-1.834,3.549,30.484,30.484,0,0,1-3.358,4.524,30.916,30.916,0,0,1-2.243,2.258c-.4.363-.813.72-1.242,1.065-.1.081-.205.163-.312.246-.044-1.472-.1-2.943-.17-4.417-.14-2.889-.534-12.754-.822-15.643-.287,2.888-.681,12.754-.822,15.643s-.213,5.775-.286,8.664c-.011.46-.02.918-.03,1.378a34.269,34.269,0,0,0-7.917-9.588,32.8,32.8,0,0,0-4.348-3.079c-1.108-.652-1.771-.967-1.768-.972s.6.4,1.607,1.152a38.4,38.4,0,0,1,3.927,3.4,39.537,39.537,0,0,1,4.693,5.626,40.562,40.562,0,0,1,2.171,3.523q.506.929.966,1.9c.209.451.418.916.6,1.374q-.033,1.975-.057,3.952c-.025,2.89-.027,2.325.01,5.213h2.5c.039-2.888.035-2.323.009-5.213s-.08-5.776-.15-8.666q-.037-1.413-.077-2.828a25.7,25.7,0,0,0,7.593-9.169,25.434,25.434,0,0,0,1.518-3.8c.288-.946.4-1.5.406-1.5S2053.041,1015.17,2052.659,1016.058Z" transform="translate(-2014.87 -981.112)"/><g transform="translate(0 0)"><path class="c" d="M2012.668,804.586a11.207,11.207,0,1,1-11.208-11.208A11.207,11.207,0,0,1,2012.668,804.586Z" transform="translate(-1982.228 -793.378)"/><path class="c" d="M2114.171,835.974a11.207,11.207,0,1,1-11.207-11.208A11.209,11.209,0,0,1,2114.171,835.974Z" transform="translate(-2071.165 -820.88)"/><path class="e" d="M2135.089,834.547a11.2,11.2,0,0,1-12.452,18.421,11.205,11.205,0,1,0,12.452-18.421Z" transform="translate(-2098.222 -829.45)"/><path class="d" d="M1992.27,807.061a11.206,11.206,0,0,1,18.8-8.24,11.207,11.207,0,1,0-17.207,14A11.161,11.161,0,0,1,1992.27,807.061Z" transform="translate(-1982.228 -793.378)"/><path class="c" d="M1956.414,913.847a15.492,15.492,0,1,1-15.495-15.491A15.495,15.495,0,0,1,1956.414,913.847Z" transform="translate(-1925.43 -885.359)"/><path class="e" d="M1975.175,922.469a15.491,15.491,0,0,1-21.081,22.376,15.492,15.492,0,1,0,21.081-22.376Z" transform="translate(-1950.545 -906.487)"/><path class="d" d="M2032.137,971.845a2.315,2.315,0,1,1-2.316-2.315A2.315,2.315,0,0,1,2032.137,971.845Z" transform="translate(-2014.87 -947.721)"/><path class="d" d="M2099.36,829.572a.792.792,0,1,1-.791-.793A.793.793,0,0,1,2099.36,829.572Z" transform="translate(-2076.438 -824.396)"/><path class="c" d="M2127.113,924.567a13.975,13.975,0,1,1-13.974-13.977A13.975,13.975,0,0,1,2127.113,924.567Z" transform="translate(-2077.653 -896.078)"/><path class="e" d="M2134.863,935.19a13.972,13.972,0,0,1-20.842,17.857,13.974,13.974,0,1,0,20.842-17.857Z" transform="translate(-2090.672 -917.633)"/><path class="e" d="M2209.6,1051.064a2.314,2.314,0,1,1-2.316-2.313A2.316,2.316,0,0,1,2209.6,1051.064Z" transform="translate(-2170.366 -1017.134)"/><path class="e" d="M2058.084,1080.969a1.12,1.12,0,1,1-1.119-1.12A1.12,1.12,0,0,1,2058.084,1080.969Z" transform="translate(-2039.698 -1044.382)"/><path class="e" d="M2207.094,1017.676a1.119,1.119,0,1,1-1.119-1.12A1.12,1.12,0,0,1,2207.094,1017.676Z" transform="translate(-2170.261 -988.925)"/><path class="d" d="M1928.217,917.27a15.49,15.49,0,0,1,25.992-11.389,15.492,15.492,0,1,0-23.787,19.356A15.408,15.408,0,0,1,1928.217,917.27Z" transform="translate(-1925.43 -885.359)"/><path class="d" d="M2153.15,921.1a4.756,4.756,0,0,1,7.979-3.5,4.756,4.756,0,1,0-7.3,5.942A4.741,4.741,0,0,1,2153.15,921.1Z" transform="translate(-2124.208 -900.198)"/><path class="c" d="M2215.106,1055.695a.6.6,0,1,1-.6-.6A.6.6,0,0,1,2215.106,1055.695Z" transform="translate(-2178.185 -1022.689)"/><path class="d" d="M2200.255,854.949a1.12,1.12,0,1,1-1.119-1.12A1.118,1.118,0,0,1,2200.255,854.949Z" transform="translate(-2164.267 -846.345)"/></g></g><g transform="translate(290.067 403.041)"><path class="b" d="M784,1059.469a16.454,16.454,0,0,0-2.216,1.569,17.563,17.563,0,0,0-3.83,4.518q-.054-1.823-.139-3.644c-.111-2.29-.422-10.108-.652-12.4-.228,2.29-.54,10.108-.65,12.4-.091,1.858-.145,3.716-.193,5.575a25.067,25.067,0,0,0-7-6.019,24.242,24.242,0,0,0-3.518-1.673c-.88-.33-1.4-.474-1.4-.476s.484.209,1.3.626a28,28,0,0,1,3.256,1.96,29.3,29.3,0,0,1,6.094,5.729q.484.6.935,1.244c.094.132.185.268.277.4q-.073,3.182-.109,6.364c-.02,2.289-.023,4.579.008,6.867h1.982c.031-2.288.028-4.578.008-6.867s-.065-4.58-.121-6.867q-.02-.831-.043-1.662c.03-.063.06-.126.088-.19q.234-.493.493-.966a20.731,20.731,0,0,1,1.106-1.8,20.261,20.261,0,0,1,2.4-2.868,19.366,19.366,0,0,1,2-1.735c.514-.386.821-.587.82-.588S784.569,1059.134,784,1059.469Z" transform="translate(-756.153 -1033.476)"/><g transform="translate(0)"><path class="c" d="M779.325,932.534a12.569,12.569,0,1,1-12.568-12.569A12.569,12.569,0,0,1,779.325,932.534Z" transform="translate(-747.194 -919.965)"/><path class="d" d="M756.45,935.31a12.567,12.567,0,0,1,21.086-9.239,12.569,12.569,0,1,0-19.3,15.7A12.521,12.521,0,0,1,756.45,935.31Z" transform="translate(-747.194 -919.965)"/><path class="c" d="M722.263,990.562a12.279,12.279,0,1,1-12.281-12.279A12.28,12.28,0,0,1,722.263,990.562Z" transform="translate(-697.704 -971.063)"/><path class="e" d="M737.139,997.4a12.277,12.277,0,0,1-16.708,17.734A12.278,12.278,0,1,0,737.139,997.4Z" transform="translate(-717.617 -987.817)"/><path class="d" d="M757.856,1051.349a1.835,1.835,0,1,1-1.835-1.834A1.834,1.834,0,0,1,757.856,1051.349Z" transform="translate(-747.194 -1033.476)"/><path class="d" d="M793.241,1038.633a.887.887,0,1,1-.886-.889A.885.885,0,0,1,793.241,1038.633Z" transform="translate(-779.859 -1023.162)"/><path class="c" d="M768.033,1066.978a.479.479,0,1,1-.479-.479A.478.478,0,0,1,768.033,1066.978Z" transform="translate(-758.487 -1048.357)"/><path class="d" d="M876.56,960.556a.887.887,0,1,1-.888-.889A.886.886,0,0,1,876.56,960.556Z" transform="translate(-852.861 -954.752)"/><path class="c" d="M857.565,999.067a11.078,11.078,0,1,1-11.078-11.078A11.078,11.078,0,0,1,857.565,999.067Z" transform="translate(-818.36 -979.567)"/><path class="e" d="M863.7,1007.494a11.074,11.074,0,0,1-16.52,14.152,11.076,11.076,0,1,0,16.52-14.152Z" transform="translate(-828.671 -996.657)"/><path class="e" d="M919.623,1089.052a1.835,1.835,0,1,1-1.833-1.833A1.834,1.834,0,0,1,919.623,1089.052Z" transform="translate(-888.933 -1066.512)"/><path class="e" d="M883.721,1113.188a.887.887,0,1,1-.886-.887A.887.887,0,0,1,883.721,1113.188Z" transform="translate(-859.136 -1088.489)"/><path class="d" d="M699.914,993.275a12.277,12.277,0,0,1,20.6-9.026,12.278,12.278,0,1,0-18.852,15.342A12.226,12.226,0,0,1,699.914,993.275Z" transform="translate(-697.704 -971.063)"/><path class="d" d="M865.251,1015.934a3.77,3.77,0,0,1,6.325-2.771,3.77,3.77,0,1,0-5.788,4.71A3.752,3.752,0,0,1,865.251,1015.934Z" transform="translate(-843.914 -1000.019)"/><path class="c" d="M924,1092.725a.479.479,0,1,1-.478-.48A.48.48,0,0,1,924,1092.725Z" transform="translate(-895.144 -1070.916)"/></g></g><g transform="translate(447.588 436.549)"><g transform="translate(0)"><path class="c" d="M1989.336,1206.144a10.352,10.352,0,1,0-17.922,0Z" transform="translate(-1970.023 -1190.612)"/><path class="d" d="M1972.3,1206.144a10.351,10.351,0,0,1,16.956-10.5,10.352,10.352,0,0,0-17.841,10.5Z" transform="translate(-1970.023 -1190.612)"/><path class="d" d="M2025.411,1232.654a1.574,1.574,0,1,1-1.575-1.574A1.574,1.574,0,0,1,2025.411,1232.654Z" transform="translate(-2015.794 -1226.07)"/><path class="e" d="M2074.158,1293.885a.761.761,0,1,1-.761-.76A.761.761,0,0,1,2074.158,1293.885Z" transform="translate(-2059.931 -1280.433)"/><path class="e" d="M2096.007,1271.006a1.793,1.793,0,1,1-1.792-1.793A1.792,1.792,0,0,1,2096.007,1271.006Z" transform="translate(-2077.268 -1259.482)"/></g><g transform="translate(15.031 5.627)"><path class="c" d="M2103.751,1245.97a6.6,6.6,0,1,0-11.43,0Z" transform="translate(-2091.434 -1236.065)"/><path class="d" d="M2092.885,1245.97a6.6,6.6,0,0,1,10.814-6.7,6.6,6.6,0,0,0-11.378,6.7Z" transform="translate(-2091.434 -1236.065)"/><path class="d" d="M2126.755,1262.873a1,1,0,1,1-1-1A1,1,0,0,1,2126.755,1262.873Z" transform="translate(-2120.623 -1258.673)"/><path class="e" d="M2157.843,1301.921a.486.486,0,1,1-.486-.487A.486.486,0,0,1,2157.843,1301.921Z" transform="translate(-2148.771 -1293.341)"/><path class="e" d="M2171.775,1287.331a1.143,1.143,0,1,1-1.143-1.144A1.142,1.142,0,0,1,2171.775,1287.331Z" transform="translate(-2159.824 -1279.982)"/></g></g><g transform="translate(376.19 436.232)"><path class="c" d="M1435.763,1203.9a10.222,10.222,0,0,0-10.189-9.415c-.241,0-.479.011-.717.028a10.223,10.223,0,0,0-17.355-2.789,9.723,9.723,0,0,0-13.508,12.176Z" transform="translate(-1393.33 -1188.05)"/><path class="d" d="M1556.245,1230.349a1.492,1.492,0,1,1-1.492-1.491A1.492,1.492,0,0,1,1556.245,1230.349Z" transform="translate(-1533.461 -1223.806)"/><path class="d" d="M1456.068,1246.218a.722.722,0,1,1-.722-.722A.722.722,0,0,1,1456.068,1246.218Z" transform="translate(-1447.036 -1238.384)"/><path class="d" d="M1532.464,1248.6a.722.722,0,1,1-.721-.721A.722.722,0,0,1,1532.464,1248.6Z" transform="translate(-1513.974 -1240.475)"/><path class="e" d="M1668.389,1290.942a.722.722,0,1,1-.722-.722A.722.722,0,0,1,1668.389,1290.942Z" transform="translate(-1633.07 -1277.571)"/><path class="d" d="M1586.75,1257.455a3.066,3.066,0,0,1,5.145-2.255,3.066,3.066,0,1,0-4.708,3.832A3.052,3.052,0,0,1,1586.75,1257.455Z" transform="translate(-1562.32 -1245.581)"/><path class="e" d="M1670.531,1249.507c0,.236-.011.469-.027.7h4.018a10.227,10.227,0,0,0-8.7-9.306A10.214,10.214,0,0,1,1670.531,1249.507Z" transform="translate(-1632.089 -1234.359)"/><path class="d" d="M1415.35,1188.05a10.2,10.2,0,0,0-7.849,3.674,9.725,9.725,0,0,0-13.51,12.175h1.187a9.714,9.714,0,0,1,11.431-10.933,10.223,10.223,0,0,0,.205,10.933h.72a10.224,10.224,0,0,1,16.583-10.883A10.217,10.217,0,0,0,1415.35,1188.05Z" transform="translate(-1393.33 -1188.05)"/></g><g transform="translate(481.787 400.479)"><path class="b" d="M2351.014,1078.229a24.593,24.593,0,0,0-3.625,1.722,25.826,25.826,0,0,0-7.206,6.2c-.049-1.914-.106-3.826-.2-5.741-.114-2.357-.436-10.412-.669-12.771-.235,2.359-.554,10.414-.67,12.771q-.092,1.876-.145,3.753a18.113,18.113,0,0,0-3.945-4.653,16.98,16.98,0,0,0-2.284-1.617c-.58-.344-.93-.509-.928-.511s.316.208.844.6a20.424,20.424,0,0,1,4.529,4.745,21.181,21.181,0,0,1,1.141,1.85c.177.326.347.658.507,1,.03.064.061.13.09.2-.016.572-.029,1.14-.045,1.711q-.087,3.538-.124,7.075c-.02,2.359.007,3.036.007,3.837h2.044c0-.6.027-1.479.006-3.837q-.035-3.278-.113-6.556c.094-.14.19-.279.287-.416q.463-.658.961-1.282a30.28,30.28,0,0,1,2.067-2.335,29.823,29.823,0,0,1,4.211-3.567,28.694,28.694,0,0,1,3.354-2.018c.844-.431,1.343-.644,1.342-.646S2351.918,1077.887,2351.014,1078.229Z" transform="translate(-2320.807 -1046.791)"/><g transform="translate(0 0)"><path class="c" d="M2326.917,912.214a12.946,12.946,0,1,1-12.945-12.946A12.947,12.947,0,0,1,2326.917,912.214Z" transform="translate(-2294.245 -899.268)"/><path class="d" d="M2303.356,915.074a12.943,12.943,0,0,1,21.719-9.516,12.945,12.945,0,1,0-19.876,16.174A12.872,12.872,0,0,1,2303.356,915.074Z" transform="translate(-2294.245 -899.268)"/><path class="d" d="M2427.062,941.086a.915.915,0,1,1-.916-.913A.916.916,0,0,1,2427.062,941.086Z" transform="translate(-2403.074 -935.109)"/><path class="c" d="M2271.555,992.6a12.648,12.648,0,1,1-12.648-12.648A12.648,12.648,0,0,1,2271.555,992.6Z" transform="translate(-2246.259 -969.96)"/><path class="e" d="M2286.875,999.637a12.648,12.648,0,0,1-17.212,18.268,12.648,12.648,0,1,0,17.212-18.268Z" transform="translate(-2266.766 -987.211)"/><ellipse class="c" cx="11.409" cy="11.411" rx="11.409" ry="11.411" transform="translate(17.445 34.723) rotate(-89.727)"/><path class="e" d="M2416.748,1015.94a11.407,11.407,0,0,1-17.016,14.578,11.409,11.409,0,1,0,17.016-14.578Z" transform="translate(-2380.731 -1001.495)"/><path class="e" d="M2444.813,1064.116a3.077,3.077,0,0,1-4.591,3.932,3.077,3.077,0,1,0,4.591-3.932Z" transform="translate(-2416.208 -1043.707)"/><path class="d" d="M2248.536,995.391a12.646,12.646,0,0,1,21.22-9.3,12.648,12.648,0,1,0-19.42,15.8A12.591,12.591,0,0,1,2248.536,995.391Z" transform="translate(-2246.259 -969.96)"/><path class="d" d="M2289.6,1084a1.89,1.89,0,1,1-1.891-1.888A1.89,1.89,0,0,1,2289.6,1084Z" transform="translate(-2280.92 -1059.47)"/><path class="d" d="M2310.786,1058.2a.915.915,0,1,1-.914-.913A.913.913,0,0,1,2310.786,1058.2Z" transform="translate(-2301.195 -1037.727)"/><path class="d" d="M2465.286,1009.121a.914.914,0,1,1-.915-.914A.914.914,0,0,1,2465.286,1009.121Z" transform="translate(-2436.568 -994.72)"/><path class="d" d="M2487.659,1023.881a.914.914,0,1,1-.914-.915A.915.915,0,0,1,2487.659,1023.881Z" transform="translate(-2456.17 -1007.651)"/><path class="c" d="M2300.064,1100.083a.494.494,0,1,1-.493-.495A.493.493,0,0,1,2300.064,1100.083Z" transform="translate(-2292.538 -1074.787)"/></g></g><path class="d" d="M513.71,1316.068H261.336a10.522,10.522,0,1,0,0,21.045h26.142a5.123,5.123,0,0,1,1.507,10.019H242.991a10.522,10.522,0,1,0,0,21.045H359.6a10.522,10.522,0,1,0,0-21.045h-31.68a5.123,5.123,0,0,1,1.507-10.019H513.71a10.522,10.522,0,1,0,0-21.045Z" transform="translate(0 -863.987)"/><g class="f" transform="translate(382.259 518.204)"><path class="g" d="M1551.159,1853.8c0,2.017-9.839,3.652-54.4,3.652-44.943,0-54.4-1.635-54.4-3.652s12.547-3.653,54.4-3.653C1541.583,1850.152,1551.159,1851.787,1551.159,1853.8Z" transform="translate(-1442.356 -1850.152)"/><path class="h" d="M1554.235,1854.87c0,1.941-9.744,3.515-53.881,3.515-44.513,0-53.881-1.574-53.881-3.515s12.426-3.516,53.881-3.516C1544.751,1851.354,1554.235,1852.928,1554.235,1854.87Z" transform="translate(-1445.963 -1851.205)"/><path class="i" d="M1557.311,1855.936c0,1.865-9.65,3.378-53.361,3.378-44.083,0-53.36-1.513-53.36-3.378s12.306-3.379,53.36-3.379C1547.918,1852.557,1557.311,1854.07,1557.311,1855.936Z" transform="translate(-1449.571 -1852.259)"/><path class="j" d="M1560.387,1857c0,1.789-9.556,3.24-52.84,3.24-43.654,0-52.84-1.451-52.84-3.24s12.186-3.241,52.84-3.241C1551.086,1853.759,1560.387,1855.21,1560.387,1857Z" transform="translate(-1453.178 -1853.313)"/><path class="k" d="M1563.463,1858.066c0,1.714-9.462,3.1-52.32,3.1-43.224,0-52.32-1.39-52.32-3.1s12.065-3.1,52.32-3.1C1554.253,1854.962,1563.463,1856.352,1563.463,1858.066Z" transform="translate(-1456.784 -1854.367)"/><path class="l" d="M1566.538,1859.131c0,1.638-9.368,2.966-51.8,2.966-42.794,0-51.8-1.328-51.8-2.966s11.945-2.967,51.8-2.967C1557.42,1856.164,1566.538,1857.492,1566.538,1859.131Z" transform="translate(-1460.391 -1855.42)"/><path class="m" d="M1569.615,1860.2c0,1.562-9.274,2.829-51.279,2.829-42.364,0-51.279-1.267-51.279-2.829s11.825-2.83,51.279-2.83C1560.588,1857.367,1569.615,1858.634,1569.615,1860.2Z" transform="translate(-1463.999 -1856.474)"/><path class="n" d="M1572.691,1861.262c0,1.486-9.179,2.692-50.759,2.692-41.934,0-50.758-1.205-50.758-2.692s11.7-2.693,50.758-2.693C1563.756,1858.569,1572.691,1859.775,1572.691,1861.262Z" transform="translate(-1467.606 -1857.527)"/><path class="o" d="M1575.766,1862.327c0,1.41-9.085,2.554-50.239,2.554-41.5,0-50.238-1.144-50.238-2.554s11.584-2.555,50.238-2.555C1566.922,1859.772,1575.766,1860.916,1575.766,1862.327Z" transform="translate(-1471.213 -1858.581)"/><path class="p" d="M1578.842,1863.392c0,1.335-8.991,2.417-49.718,2.417-41.075,0-49.717-1.083-49.717-2.417s11.464-2.418,49.717-2.418C1570.09,1860.974,1578.842,1862.057,1578.842,1863.392Z" transform="translate(-1474.82 -1859.634)"/><path class="q" d="M1581.918,1864.457c0,1.259-8.9,2.28-49.2,2.28-40.645,0-49.2-1.021-49.2-2.28s11.344-2.281,49.2-2.281C1573.258,1862.176,1581.918,1863.2,1581.918,1864.457Z" transform="translate(-1478.427 -1860.687)"/><path d="M1584.994,1865.523c0,1.183-8.8,2.143-48.677,2.143-40.215,0-48.676-.959-48.676-2.143s11.223-2.144,48.676-2.144C1576.424,1863.379,1584.994,1864.339,1584.994,1865.523Z" transform="translate(-1482.034 -1861.741)"/></g><g transform="translate(386.996 345.544)"><path class="r" d="M2262.017,1705.27l.9-.52h2.6v3.455Z" transform="translate(-2165.274 -1550.091)"/><g transform="translate(80.763 156.315)"><path class="s" d="M2174.382,1751.364a3.083,3.083,0,0,0-.195-1.081l3.679-2.124-.513-.888-3.679,2.124a3.09,3.09,0,0,0-1.872-1.08v-4.249h-1.025v4.249a3.091,3.091,0,0,0-1.872,1.08l-3.679-2.124-.513.888,3.679,2.124a3.1,3.1,0,0,0,0,2.161l-3.679,2.125.513.888,3.679-2.124a3.09,3.09,0,0,0,1.872,1.08v4.249h1.025v-4.249a3.089,3.089,0,0,0,1.872-1.08l3.68,2.125.513-.888-3.679-2.125A3.078,3.078,0,0,0,2174.382,1751.364Z" transform="translate(-2160.78 -1740.855)"/><path class="t" d="M2143.458,1718.128a10.509,10.509,0,1,0,10.509,10.509A10.509,10.509,0,0,0,2143.458,1718.128Zm0,18.266a7.757,7.757,0,1,1,7.757-7.757A7.757,7.757,0,0,1,2143.458,1736.394Z" transform="translate(-2132.949 -1718.128)"/><path class="u" d="M2165.27,1743.019a7.427,7.427,0,1,0,7.427,7.427A7.427,7.427,0,0,0,2165.27,1743.019Zm0,13.422a5.995,5.995,0,1,1,5.994-5.995A6,6,0,0,1,2165.27,1756.441Z" transform="translate(-2154.76 -1739.937)"/><path class="v" d="M2162.936,1740.361a7.757,7.757,0,1,0,7.757,7.757A7.757,7.757,0,0,0,2162.936,1740.361Zm0,14.632a6.876,6.876,0,1,1,6.876-6.876A6.876,6.876,0,0,1,2162.936,1754.993Z" transform="translate(-2152.427 -1737.608)"/></g><path class="w" d="M2127.573,1698.939a12.736,12.736,0,0,0-12.736,12.736c0,.28.01.557.028.832h2.613c-.022-.275-.037-.552-.037-.832a10.132,10.132,0,0,1,19.446-3.991l2.92.44A12.741,12.741,0,0,0,2127.573,1698.939Z" transform="translate(-2036.316 -1545)"/><g transform="translate(0 156.167)"><path class="x" d="M1501.63,1727.438a10.509,10.509,0,1,0-10.509,10.509A10.509,10.509,0,0,0,1501.63,1727.438Z" transform="translate(-1480.612 -1716.929)"/><path class="y" d="M1518.354,1746.914a7.757,7.757,0,1,0-7.757,7.757A7.757,7.757,0,0,0,1518.354,1746.914Z" transform="translate(-1500.088 -1736.405)"/><path class="z" d="M1525.958,1755.769a6.506,6.506,0,1,0-6.506,6.506A6.506,6.506,0,0,0,1525.958,1755.769Z" transform="translate(-1508.943 -1745.26)"/><path class="aa" d="M1531.753,1762.518a5.552,5.552,0,1,0-5.552,5.552A5.552,5.552,0,0,0,1531.753,1762.518Z" transform="translate(-1515.692 -1752.009)"/><path class="ab" d="M1561.018,1833.318a5.5,5.5,0,0,1-1.472,0c.01-.927.337-1.671.736-1.671S1561.008,1832.391,1561.018,1833.318Z" transform="translate(-1549.774 -1817.444)"/><path class="ab" d="M1561.018,1758.126c-.01.928-.336,1.671-.736,1.671s-.726-.743-.736-1.671a5.491,5.491,0,0,1,1.472,0Z" transform="translate(-1549.774 -1752.982)"/><path class="ab" d="M1592.828,1815.432a5.351,5.351,0,0,1-.739,1.277c-.8-.474-1.277-1.127-1.078-1.474S1592.019,1814.978,1592.828,1815.432Z" transform="translate(-1577.304 -1802.879)"/><path class="ab" d="M1526.807,1776.468c-.2.346-1.007.256-1.816-.2a5.41,5.41,0,0,1,.738-1.276C1526.526,1775.468,1527.007,1776.122,1526.807,1776.468Z" transform="translate(-1519.497 -1767.806)"/><path class="ab" d="M1592.828,1776.271c-.809.454-1.617.544-1.817.2s.281-1,1.079-1.473A5.409,5.409,0,0,1,1592.828,1776.271Z" transform="translate(-1577.304 -1767.806)"/><path class="ab" d="M1525.729,1816.708a5.4,5.4,0,0,1-.738-1.277c.808-.454,1.617-.544,1.816-.2S1526.526,1816.234,1525.729,1816.708Z" transform="translate(-1519.497 -1802.879)"/></g><path class="ac" d="M1514.862,1701.767a12.328,12.328,0,0,0-7.154,2.274l2.476,1.347a9.936,9.936,0,0,1,14.612,8.765c0,.047,0,.093,0,.14l2.42.812q.035-.471.036-.951A12.386,12.386,0,0,0,1514.862,1701.767Z" transform="translate(-1504.353 -1547.478)"/><rect class="ad" width="0.352" height="2.67" transform="translate(100.241 154.832)"/><path class="r" d="M1560.494,1610.6s-.252,1.926,2.911,2.476l1.038-2.879-1.542-1.542Z" transform="translate(-1550.6 -1465.891)"/><path class="r" d="M1596.477,1635.311l-.948,4.463a16.593,16.593,0,0,1,12.438,12.457l-.01,1.216h4.664v-1.216A21.154,21.154,0,0,0,1596.477,1635.311Z" transform="translate(-1581.302 -1489.249)"/><path class="r" d="M1755.333,1788.775a2.145,2.145,0,0,0,2.145-2.146,2.058,2.058,0,0,0-2.04-2.145H1690l3.159,4.552h50.592Z" transform="translate(-1664.076 -1619.954)"/><path class="ae" d="M2161.148,1792.629h-6.759a1.16,1.16,0,1,0,0,2.32h6.759a1.16,1.16,0,0,0,0-2.32Z" transform="translate(-2069.955 -1627.09)"/><path class="af" d="M2155.285,1795.719a1.033,1.033,0,1,1,0-2.066h6.759a1.033,1.033,0,1,1,0,2.066Z" transform="translate(-2070.851 -1627.988)"/><path class="ad" d="M2156.185,1796.488a.906.906,0,1,1,0-1.813h6.759a.906.906,0,0,1,0,1.813Z" transform="translate(-2071.75 -1628.883)"/><path class="ag" d="M1551.719,1603.675s-3.809,15.313-4.317,17.356a65.925,65.925,0,0,0-1.341,7.267,2.362,2.362,0,0,0,1.838,2.246,2.322,2.322,0,0,0,2.626-1.089,39.225,39.225,0,0,0,2.246-7.315c.4-1.6,2.187-8.45,3.383-13.014.636-2.428,3.932-3.574,3.932-3.574Z" transform="translate(-1537.957 -1461.53)"/><path class="ah" d="M1549.392,1631.557a2.42,2.42,0,0,1-.568-.068,2.245,2.245,0,0,1-1.741-2.123,66.633,66.633,0,0,1,1.338-7.237l4.287-17.236,7.844,1.761c-.9.389-3.1,1.521-3.625,3.508-1.09,4.158-2.978,11.379-3.383,13.016l-.047.192a38.187,38.187,0,0,1-2.189,7.1,2.109,2.109,0,0,1-1.915,1.092Z" transform="translate(-1538.854 -1462.597)"/><path class="ai" d="M1597.045,1606.236a8.668,8.668,0,0,1,1.415-.683l-8.366-1.878s-.087.35-.236.948Z" transform="translate(-1576.334 -1461.53)"/><rect class="u" width="56.98" height="1.548" transform="translate(24.304 162.982)"/><rect class="ah" width="56.219" height="0.788" transform="translate(24.684 163.362)"/><path class="aj" d="M1523.27,1580.267l-1.713-.846a4.728,4.728,0,0,0-.908,2.889,6.862,6.862,0,0,0,.7,3.075Z" transform="translate(-1515.692 -1440.279)"/><path class="ag" d="M1642.521,1671.731h2.1a19.9,19.9,0,0,0-10.177-12.722l-.6,1.988A18.08,18.08,0,0,1,1642.521,1671.731Z" transform="translate(-1614.875 -1510.013)"/><path class="ah" d="M1643.686,1672.9a18.217,18.217,0,0,0-8.618-10.67l.524-1.743a19.774,19.774,0,0,1,9.936,12.413Z" transform="translate(-1615.945 -1511.307)"/><path class="ak" d="M1526.524,1579.421l-.206,5.965s7.4.531,7.513-2.229C1533.955,1580.061,1528.362,1579.586,1526.524,1579.421Z" transform="translate(-1520.659 -1440.279)"/><path class="al" d="M1527.417,1579.507c-.348-.038-.653-.065-.893-.086l-.206,5.965s.389.027.989.037Z" transform="translate(-1520.659 -1440.279)"/><path class="am" d="M1682.422,995.922l-8.1,32.683,3.33.748,8.579-34.6.882-3.551-3.329-.747-8.56-1.921-.883,3.55,7.04,1.58C1682.422,993.875,1682.785,994.461,1682.422,995.922Z" transform="translate(-1650.337 -922.547)"/><path class="ae" d="M1558.666,1736.976l-1.607,6.565a1.16,1.16,0,0,0,2.254.552l1.607-6.565a1.16,1.16,0,1,0-2.253-.552Z" transform="translate(-1547.564 -1577.552)"/><path class="af" d="M1559.087,1745.746a1.034,1.034,0,0,1-1-1.279l1.607-6.565a1.031,1.031,0,0,1,1-.788,1.052,1.052,0,0,1,.246.03,1.035,1.035,0,0,1,.758,1.25l-1.607,6.565a1.031,1.031,0,0,1-1,.788Z" transform="translate(-1548.465 -1578.448)"/><path class="ad" d="M1559.983,1746.518a.92.92,0,0,1-.216-.027.908.908,0,0,1-.665-1.1l1.607-6.565a.907.907,0,0,1,1.761.431l-1.607,6.565A.9.9,0,0,1,1559.983,1746.518Z" transform="translate(-1549.361 -1579.347)"/><path class="ah" d="M1609.641,1294.586l-9.515,38.5-8.366-1.878,9.515-38.5Z" transform="translate(-1577.998 -1189.063)"/><path class="ag" d="M1626.785,1339.069l4.03.9,9.515-38.5-4.03-.9Z" transform="translate(-1608.688 -1195.951)"/><path class="an" d="M1601.274,1292.708l-9.515,38.5,1.16.261,9.515-38.5Z" transform="translate(-1577.998 -1189.063)"/><path class="af" d="M1673.739,1296.208l.4-1.623-8.366-1.878-.4,1.623Z" transform="translate(-1642.497 -1189.063)"/><path class="ao" d="M1666.531,1294.591l.4-1.623-1.159-.26-.4,1.623Z" transform="translate(-1642.497 -1189.063)"/><path class="ap" d="M1704.43,1303.1l.4-1.623-4.03-.9-.4,1.623Z" transform="translate(-1673.189 -1195.951)"/><g transform="translate(41.522 68.038)"><g transform="translate(2.728 83.146)"><path class="aq" d="M1853.621,1677.561s-.553-1.268-1.138-.748a24.483,24.483,0,0,1-4.584,3.869c-2.016,1.106-4.975,2.5-6.21,3.008s-2.8.991-3.284,1.9c-.434.811-1.2,2.039,2.438,2.211s10.34-.2,11.673-.2h10.632c.39,0,.423-1.1.325-2.468a19.784,19.784,0,0,0-.878-5.593c-.715-1.821-1.821-2.374-3.251-1.821S1853.621,1677.561,1853.621,1677.561Z" transform="translate(-1838.024 -1676.688)"/><path class="ar" d="M1863.475,1741.058c-.012-.168-.023-.352-.035-.547a5.245,5.245,0,0,1-3.574,1.523c-1.333-.033-3.837-.455-5.5-.358s-6.8.734-7.8,1.008a21.564,21.564,0,0,1-6.539,0,9.672,9.672,0,0,1-1.816-.806c-.373.772-.5,1.7,2.629,1.847,3.642.172,10.34-.2,11.673-.2h10.632C1863.54,1743.526,1863.573,1742.424,1863.475,1741.058Z" transform="translate(-1838.027 -1732.609)"/><path class="as" d="M1895.807,1677.561s-.553-1.268-1.138-.748a24.483,24.483,0,0,1-4.584,3.869c-1.161.637-2.635,1.371-3.913,1.975a1.407,1.407,0,0,0,1.434.779,34.722,34.722,0,0,0,5.6-2.5,5.917,5.917,0,0,0,2.616-3.374Z" transform="translate(-1880.21 -1676.688)"/><path class="at" d="M1914.511,1705.664l2.446,3.564c1.7-.22,3.551-.422,4.428-.474.289-.017.6-.018.933-.008l-3.04-5.81a5.936,5.936,0,0,1-1.236,1C1917.469,1704.266,1915.891,1705.057,1914.511,1705.664Z" transform="translate(-1905.042 -1699.686)"/><g class="au" transform="translate(7.99 0.231)"><path d="M1919.143,1681.178c-.715-1.821-1.821-2.374-3.251-1.821s-5.723-.162-5.723-.162a2.549,2.549,0,0,0-.416-.642,18.477,18.477,0,0,1-2.091,4.056,9.708,9.708,0,0,1-1.363,1c-1.654,1.092-3.713,2.452-3.713,4.469,0,.039,0,.08-.008.122a2.659,2.659,0,0,0,.15,1.246c2.829-.069,5.539-.2,6.335-.2h5.483a41.273,41.273,0,0,0,4.577-3.409c.265-.215.533-.432.791-.64A14.509,14.509,0,0,0,1919.143,1681.178Z" transform="translate(-1902.563 -1678.553)"/></g></g><path class="av" d="M1888.609,1159.4s-4.955,20.852-5.216,23.66-.391,5.356.588,7.968,3.2,8.164,3.657,13.781,2.508,23.878,2.508,23.878a33.4,33.4,0,0,1-6.072.338c-2.939-.159-7.4-1.286-7.366-3.042s-1.032-16.014-2.208-22.741-5.605-19.462-5.605-19.462l2.547-16.981Z" transform="translate(-1862.345 -1140.296)"/><g transform="translate(12.155 75.952)"><path class="aq" d="M1914.194,1635.529c0,.553-.325,1.3,1.431,1.4s6.405-.455,8.226-1.4,5.788-4.519,7.088-5.332,6.242-3.479,6.047-4.227a18.236,18.236,0,0,0-2.634-4.844c-1.138-1.333-2.6-2.8-3.056-2.5s-.845,1.171-1.821,3.024-2.554,4.487-3.895,3.934-3.063-3.089-3.681-.91a22.393,22.393,0,0,1-2.958,6.31C1918.031,1632.083,1914.194,1633.643,1914.194,1635.529Z" transform="translate(-1914.171 -1618.584)"/><path class="ar" d="M1936.987,1661.445a14.915,14.915,0,0,0-1.052-2.373c-.837.974-3.167,3.635-3.987,4.032-1.008.488-2.081.163-3.8,1.886s-2.407,4.529-5.3,5.3c-3.209.855-6.246,1.567-8.652.813-.028.539-.221,1.208,1.434,1.3,1.755.1,6.405-.455,8.226-1.4s5.788-4.519,7.088-5.332S1937.183,1662.193,1936.987,1661.445Z" transform="translate(-1914.171 -1654.059)"/><path class="as" d="M1953.687,1661.585a22.4,22.4,0,0,1-2.959,6.31,2.523,2.523,0,0,1-.28.279.985.985,0,0,0,1.194.137c.8-.489,1.363-1.9,2.059-3.244a37.222,37.222,0,0,0,1.553-4.053C1954.58,1660.585,1954,1660.5,1953.687,1661.585Z" transform="translate(-1945.958 -1655.5)"/><path class="at" d="M1967.9,1681.867c-.438.848-.823,1.718-1.247,2.37l5,2.337a39.448,39.448,0,0,1,2.471-3.344c.092-.092.182-.177.271-.258l-5.673-3.082A19.837,19.837,0,0,1,1967.9,1681.867Z" transform="translate(-1960.154 -1672.299)"/></g><path class="aw" d="M1825.036,1008.642v7.84a102.362,102.362,0,0,0-5.9,15.563,122.51,122.51,0,0,0-3.124,16.919c-.236,2.947,1.3,5.128,2.947,6.9s7.693,16.186,9.226,19.606,6.146,13.016,6.146,13.016a3.634,3.634,0,0,0,4.435.92c2.829-1.228,9.042-5.649,7.881-7.569s-5.995-11.294-8-16.128-2.711-7.487-5.659-10.729-2.7-4.518-2.7-4.518,7.079-16.794,8.258-18.976,5.176-7.318,6.532-12.456-3.183-13.921-3.183-13.921Z" transform="translate(-1815.993 -1005.105)"/><path class="ax" d="M1909.039,1081.832c-1.161-1.921-5.995-11.294-8-16.128s-2.711-7.487-5.659-10.729-2.7-4.518-2.7-4.518,7.079-16.794,8.258-18.976,5.176-7.318,6.532-12.456-3.183-13.921-3.183-13.921l-7.907,1.659c.69,2.074,1.674,5.268,2.252,6.547.893,1.975.669,2.719,0,3.537s-.372.685.3,1.5-1.267.723-1.265,1.175.745,1.122.745,1.865-3.049,3.569-4.09,6.99-3.272,10.374-4.313,14.222-1.636,5.484-1.636,7.194-1.636,1.487-1.041,2.6,2.305,1.041,2.156,1.785-.818,1.338-.148,1.859a25.986,25.986,0,0,1,6.29,10.41,87.347,87.347,0,0,0,7.69,16.683c1.041,1.312,1.338,1.312,1.041,2.2-.178.533.258.991.844,1.643C1907.608,1085.212,1909.765,1083.033,1909.039,1081.832Z" transform="translate(-1878.379 -1005.105)"/></g><g transform="translate(48.831 0)"><path class="ay" d="M1877.841,482.922a12.99,12.99,0,0,0-1.017,3.752,3.782,3.782,0,0,0,0,1.929.835.835,0,0,1,.085.784c-.085.085-1.531,2.454-1.765,2.909s-.117,1.1.377,1.144,1.222.169,1.222.169a11.394,11.394,0,0,0-.13,1.157c0,.338.364.468.339.676s-.052.364.026.416a1.958,1.958,0,0,1,.559,1.235c-.078.468,0,1.937.91,2.08s3.5-.429,3.938.6,1.287,5.173.923,6.59c0,0,1.836.654,6.08-.277s4.245-4.505,4.245-4.505-2.16-3.672-1.192-6.825,2.942-7.212,1.452-10.675-5.734-5.51-9.68-4.8A9.263,9.263,0,0,0,1877.841,482.922Z" transform="translate(-1875.028 -476.215)"/><path class="az" d="M1906.745,484.078c-1.489-3.463-5.734-5.51-9.68-4.8a9.263,9.263,0,0,0-6.371,3.647,12.41,12.41,0,0,0-1,3.62,5.5,5.5,0,0,1,1.947.436c.063.07.129.145.2.223a7.849,7.849,0,0,0,4.671,2.928,1.6,1.6,0,0,0,.266.022h0a2.984,2.984,0,0,0,1.8-.861,2.6,2.6,0,0,1,1.244-.694.954.954,0,0,1,.613.273c.856.678.854,1.99.854,3.259a7.424,7.424,0,0,0,.168,2,1.961,1.961,0,0,0,1.824,1.522c.653.046,1.243.07,1.752.07h.057a5.6,5.6,0,0,1,.2-.967C1906.261,491.6,1908.235,487.541,1906.745,484.078Z" transform="translate(-1887.881 -476.215)"/><path class="az" d="M1965.717,539.285l-1.252,1.777a2.317,2.317,0,0,1,.369,2.453,3.412,3.412,0,0,1-2.361,2.653,4.673,4.673,0,0,0,1.992-.5c.523-.43,3.8-3.71,3.8-3.71Z" transform="translate(-1951.646 -528.918)"/><path class="az" d="M1886.293,554c-1.869,3.542-6.587,4.45-7.121,4.237s-.445-2.154-.926-3.151a4.149,4.149,0,0,1-.267-2.9,5.337,5.337,0,0,1,1.887-2.35c.5-.356-.57-.89-1.62-1.531a4.072,4.072,0,0,0-1.532-.551,1.839,1.839,0,0,0,.11.972.836.836,0,0,1,.085.784c-.085.085-1.531,2.454-1.765,2.909s-.117,1.1.377,1.144,1.222.169,1.222.169a11.393,11.393,0,0,0-.13,1.157c0,.338.364.468.339.676s-.052.364.026.416a1.958,1.958,0,0,1,.559,1.235c-.078.468,0,1.937.91,2.08s3.5-.429,3.938.6,1.287,5.173.923,6.59a5.8,5.8,0,0,0,1.536.214,29.825,29.825,0,0,1-.224-5.824A41.712,41.712,0,0,1,1886.293,554Z" transform="translate(-1875.028 -536.34)"/><path class="ba" d="M1891.218,477.449c-.418.5-.522,1.281.326,1.2s3.168-.518,3.5.847,1.5,2.056,1.72,3.048a5.759,5.759,0,0,0,1.6,2.516c.219.055,2.527-2.317,3.84-.766.939,1.11-.168,4.639.621,5.112s3.64.358,3.64.358a19.772,19.772,0,0,0,2.147-6.806c.246-3.325-2.184-7.31-6.47-8.62A10.083,10.083,0,0,0,1891.218,477.449Z" transform="translate(-1888.937 -471.576)"/><path class="r" d="M1921.594,595.01l3.486-6.526,1.162.368-3.55,6.391Z" transform="translate(-1915.829 -572.025)"/><path class="r" d="M1939.808,550.183l1.132,4.621h1.02l-1.135-4.971Z" transform="translate(-1931.788 -538.16)"/><path class="r" d="M1956.9,576.59l-5.266,1.421-.262.988,5.519-1.46Z" transform="translate(-1941.917 -561.604)"/><path class="r" d="M1884.87,547.54a7.576,7.576,0,0,0,.1,2.583c.3,1.49.859,2.245,1.22,2.067.955-.473,1.2-2.7,1.208-3.479s-.234-1.227-1-1.26S1885.02,547.111,1884.87,547.54Z" transform="translate(-1883.595 -535.953)"/><path class="r" d="M1909.99,549.551s-.984-.324-1.4,0-.288.2-.288.2l-7.86-.166-.042-.758,8.653.405A1.852,1.852,0,0,1,1909.99,549.551Z" transform="translate(-1897.259 -537.274)"/><path class="ad" d="M1885.19,468.439c1.065-.039,2.363-2.662,4.4-1.05,2.419,1.918.145,6.406,2.276,6.558a20.562,20.562,0,0,0,3.452,0,21.339,21.339,0,0,0,1.943-7.1c.273-4.551-2.221-9.841-7.515-10.907-12.984-2.612-13.165,8.811-13.165,8.811s3.565.017,4.327.853S1882.577,468.536,1885.19,468.439Z" transform="translate(-1876.386 -455.548)"/><g transform="translate(7.843 10.873)"><path class="bb" d="M1939.3,543.834a.461.461,0,1,1-.461-.461A.461.461,0,0,1,1939.3,543.834Z" transform="translate(-1938.375 -543.373)"/><path class="bc" d="M1939.555,543.778a.405.405,0,1,1-.406-.405A.405.405,0,0,1,1939.555,543.778Z" transform="translate(-1938.698 -543.373)"/></g><g transform="translate(15.149 15.118)"><path class="bb" d="M1998.31,578.116a.461.461,0,1,1-.461-.461A.461.461,0,0,1,1998.31,578.116Z" transform="translate(-1997.388 -577.655)"/><path class="bc" d="M1998.566,578.06a.405.405,0,1,1-.406-.405A.405.405,0,0,1,1998.566,578.06Z" transform="translate(-1997.71 -577.655)"/></g><g transform="translate(13.356 10.751)"><path class="bb" d="M1983.832,542.848a.461.461,0,1,1-.461-.461A.461.461,0,0,1,1983.832,542.848Z" transform="translate(-1982.91 -542.387)"/><path class="bc" d="M1984.087,542.792a.406.406,0,1,1-.406-.405A.405.405,0,0,1,1984.087,542.792Z" transform="translate(-1983.231 -542.387)"/></g></g><path class="az" d="M1687.784,995.636a11.607,11.607,0,0,0-2.884.051c-.1-.021-.817-.272-2.115-.712-.973-.33-1.2-3.023-1.246-4.358a1.742,1.742,0,0,0-.178.819c0,1.11.251,3.643.775,4.146a8.942,8.942,0,0,0,1.969,1.11,1.986,1.986,0,0,0,1.329.21,5.37,5.37,0,0,0,2.125-.9A.7.7,0,0,0,1687.784,995.636Z" transform="translate(-1656.507 -924.372)"/><path class="bd" d="M1871.525,720.477s20.515.681,23.211-.567c0,0-1.4-15.273-1.146-20.7s2.92-17.385,3.188-20.684c.649-7.993-2-14.026-4.5-16.023s-7.388.3-7.388.3-4.943,1.4-6.042,2.4-5.726,9.306-6.208,12.3-.43,6.832-.679,7.482-.216,6.937.047,11.123C1872.64,706.142,1871.525,720.477,1871.525,720.477Z" transform="translate(-1823.128 -636.168)"/><path class="bd" d="M1935.536,639.815s-2.456-1.721-2.456-2.977.32-1.906-1-1.395-4.718,1.3-6.067,1.814-5.023.6-5.3,2.465-.6,4.185,0,4.182,4.6-2.6,6.833-3.112S1935.536,639.815,1935.536,639.815Z" transform="translate(-1865.927 -613.017)"/><path class="be" d="M1940.557,635.443c-.284.11-.663.232-1.1.362.357.787.67,1.671.454,1.995-.422.634-1.669.628-1.8.964s-.193,1-.48,1.181-5.94,1.409-7.584,3.619c1.446-.722,4.243-2.375,5.976-2.772,2.232-.511,7.99-.976,7.99-.976s-2.456-1.721-2.456-2.977S1941.879,634.931,1940.557,635.443Z" transform="translate(-1874.406 -613.017)"/><path class="be" d="M1890.1,750.542c.609-2.586-.321-3.107-.485-4.605s1.6-8.933,2.3-10.916.694-11.124-1.635-12.59l-7.949,2.448-2.3,1.739s-3.255,17.139-3.583,17.414a20.263,20.263,0,0,1-2.7,1.051h0c.036,1.463.1,2.953.176,4.243a188.651,188.651,0,0,1-.213,20.206,111.335,111.335,0,0,1,6.393-10.748C1882.187,755.933,1889.488,753.129,1890.1,750.542Z" transform="translate(-1825.039 -689.389)"/><path class="ay" d="M1691.81,959.683s-3.245,1.277-3.958,1.424a46.768,46.768,0,0,0-4.753,1.319c-1.048.418-1.739.8-1.739,1.906s.251,3.643.775,4.146a8.942,8.942,0,0,0,1.969,1.11,1.986,1.986,0,0,0,1.329.21,5.37,5.37,0,0,0,2.125-.9c.188-.1.4-.754.188-.838a4.429,4.429,0,0,0-1.508-.46c-.5.021-.566-.231-.806-.231s-1.015-.126-1.015-.126l-.5-.9.659-.659s4.575.346,5.5-.115a2.349,2.349,0,0,0,1.172-1.256l3.9-.5Z" transform="translate(-1656.507 -897.268)"/><path class="az" d="M1705.426,986.983l3.9-.5-.744-.922h-3.864a1.4,1.4,0,0,1-1,1.861,10.786,10.786,0,0,1-3.56.317c-1.214-.1-1.822.042-2.345.712a.806.806,0,0,0,0,1.193,3.562,3.562,0,0,0,.8.273l-.5-.9.659-.659s4.575.346,5.5-.115A2.349,2.349,0,0,0,1705.426,986.983Z" transform="translate(-1670.688 -919.94)"/><path class="bd" d="M1750.441,723.661l1.331,4.579,2.817-.4s1.538.137,2.143.165,10.685-2.17,13.844-3.132,5.48-1.607,6.634-3.063,4.464-14.023,5.151-16.743,1.607-8.384.825-12.145c-.861-4.14-7.115-4.254-9.45-.107s-1.84,8.461-2.2,11.125-2.005,11.62-2.308,12.032-.769.384-.824.6-4.368,1.758-5.6,2.307-6.895,2.032-7.993,2.527a7,7,0,0,0-1.868,1.264Z" transform="translate(-1717.035 -660.76)"/><g transform="translate(26.339 66.918)"><path class="u" d="M1697.87,998.314a2.258,2.258,0,1,0-2.258,2.258A2.258,2.258,0,0,0,1697.87,998.314Z" transform="translate(-1693.354 -996.056)"/><path class="r" d="M1699.234,999.9a2.034,2.034,0,1,0-2.034,2.034A2.034,2.034,0,0,0,1699.234,999.9Z" transform="translate(-1694.943 -997.642)"/></g></g></g></svg>